<svg aria-hidden="true" style="position: absolute; width: 0; height: 0; overflow: hidden;" version="1.1" xmlns="http://www.w3.org/2000/svg" xmlns:xlink="http://www.w3.org/1999/xlink">
<defs>
<symbol id="icon-charity" viewBox="0 0 32 32">
<path d="M22.906 3.659c-1.62-1.526-4.395-1.874-6.906 0.636-2.507-2.508-5.286-2.162-6.906-0.638-1.887 1.776-1.92 4.747-0.101 6.566l7.007 7.008 7.007-7.007c1.819-1.819 1.786-4.79-0.101-6.566zM22.137 9.353l-6.137 6.138-6.137-6.137c-1.332-1.333-1.306-3.5 0.075-4.8 0.588-0.556 1.376-0.862 2.218-0.862 1.762 0 2.555 1.054 3.844 2.342 1.254-1.254 2.062-2.342 3.844-2.342 0.842 0 1.63 0.305 2.219 0.86 1.377 1.297 1.409 3.465 0.074 4.8z"></path>
<path d="M29.897 3.693c-1.084 0-1.984 0.812-2.092 1.89l-0.779 7.694c-0.375 0.080-0.72 0.262-0.987 0.529l-6.217 5.787c-0.855 0.779-1.351 1.89-1.36 3.052v6.894h7.385v-3.244c0-0.501 0.21-0.988 0.592-1.35l4.671-4.714c0.575-0.581 0.891-1.35 0.891-2.166v-12.268c0-1.159-0.944-2.103-2.103-2.103zM30.769 18.065c0 0.49-0.19 0.951-0.535 1.301l-4.656 4.699c-0.612 0.578-0.962 1.391-0.962 2.23v2.014h-4.923v-5.655c0.006-0.816 0.354-1.598 0.964-2.151l6.236-5.808c0.167-0.167 0.396-0.25 0.639-0.225 0.134 0.012 0.327 0.060 0.492 0.225 0.151 0.151 0.235 0.353 0.235 0.566s-0.085 0.415-0.214 0.545l-4.801 4.354 0.827 0.911 4.823-4.375c0.384-0.384 0.596-0.894 0.596-1.436s-0.21-1.052-0.594-1.435c-0.187-0.19-0.405-0.335-0.644-0.434l0.777-7.68c0.046-0.448 0.42-0.785 0.869-0.785 0.481 0 0.873 0.391 0.873 0.873v12.268z"></path>
<path d="M12.178 19.593l-6.217-5.787c-0.267-0.267-0.612-0.45-0.987-0.529l-0.779-7.694c-0.108-1.078-1.008-1.89-2.092-1.89-1.159 0-2.103 0.944-2.103 2.103v12.268c0 0.816 0.316 1.585 0.891 2.165l4.671 4.714c0.382 0.362 0.592 0.85 0.592 1.351v3.244h7.385v-6.894c-0.007-1.162-0.505-2.272-1.36-3.052zM12.308 28.308h-4.923v-2.014c0-0.838-0.351-1.652-0.962-2.23l-4.656-4.699c-0.346-0.35-0.535-0.811-0.535-1.301v-12.268c0-0.481 0.391-0.873 0.873-0.873 0.449 0 0.823 0.337 0.869 0.783l0.777 7.68c-0.239 0.101-0.457 0.246-0.644 0.434-0.383 0.383-0.594 0.892-0.594 1.435s0.212 1.052 0.596 1.436l4.823 4.375 0.827-0.911-4.801-4.354c-0.13-0.13-0.214-0.331-0.214-0.545s0.084-0.415 0.235-0.566c0.164-0.165 0.358-0.213 0.492-0.225 0.244-0.023 0.471 0.058 0.639 0.225l6.236 5.808c0.609 0.554 0.958 1.335 0.964 2.151v5.658z"></path>
</symbol>
<symbol id="icon-clean" viewBox="0 0 32 32">
<path d="M29.5 11h-1.5v-1.5c-0.003-0.827-0.673-1.497-1.5-1.5h-0v-2.5c0-0.276-0.224-0.5-0.5-0.5v0-3.5c0-0.276-0.224-0.5-0.5-0.5v0h-6c-0.082 0-0.16 0.021-0.228 0.056l0.003-0.001-4 2c-0.164 0.083-0.275 0.25-0.275 0.443 0 0.001 0 0.002 0 0.002v-0 2c0 0 0 0.001 0 0.001 0 0.178 0.093 0.334 0.233 0.423l0.002 0.001c0.075 0.047 0.167 0.075 0.265 0.075h0c0.082-0.001 0.159-0.021 0.228-0.056l-0.003 0.001 3.895-1.945h3.38v1c-0.276 0-0.5 0.224-0.5 0.5v0 2.5c-0.827 0.003-1.497 0.673-1.5 1.5v1.5h-1.5c-0.827 0.003-1.497 0.673-1.5 1.5v6.53l-2 1.070v-0.1c0-1.381-1.119-2.5-2.5-2.5v0h-10c-0.082 0-0.16 0.021-0.228 0.056l0.003-0.001-2 1c-0.164 0.081-0.275 0.247-0.275 0.439 0 0.002 0 0.004 0 0.006v-0l-0.030 8c0 0.233 0.16 0.429 0.377 0.484l0.003 0.001 2.030 0.5c0.036 0.009 0.077 0.015 0.12 0.015h6.87c0.462-0.001 0.895-0.125 1.267-0.341l-0.012 0.006 6.375-3.7v6.535c0 0.276 0.224 0.5 0.5 0.5v0h12c0.276 0 0.5-0.224 0.5-0.5v0-18c-0.003-0.827-0.673-1.497-1.5-1.5h-0zM24 2h1v3h-1zM23.5 6h2v2h-2zM19.5 3c-0.082 0.001-0.16 0.021-0.228 0.056l0.003-0.001-3.275 1.635v-0.88l3.62-1.81h3.38v1zM22 9.5c0-0.276 0.224-0.5 0.5-0.5v0h4c0.276 0 0.5 0.224 0.5 0.5v0 1.5h-5zM11.125 26.795c-0.216 0.128-0.477 0.204-0.755 0.205h-6.81l-1.59-0.39 0.030-7.3 1.62-0.81h9.88c0.828 0 1.5 0.672 1.5 1.5s-0.672 1.5-1.5 1.5v0h-6v1h6c0.811-0.001 1.531-0.389 1.986-0.989l0.005-0.006 10.055-5.37c0.138-0.077 0.302-0.122 0.477-0.122 0.548 0 0.992 0.444 0.992 0.992 0 0.359-0.19 0.673-0.475 0.847l-0.004 0.002zM30 30h-11v-4h11zM30 25h-11v-1.615l8.035-4.665c0.603-0.35 1.002-0.993 1.002-1.729 0-1.1-0.892-1.992-1.992-1.992-0.362 0-0.702 0.097-0.995 0.266l0.010-0.005-6.060 3.235v-5.995c0-0.276 0.224-0.5 0.5-0.5v0h10c0.276 0 0.5 0.224 0.5 0.5v0z"></path>
<path d="M14.443 12h0.114c0.828-0 1.5-0.672 1.5-1.5 0-0.189-0.035-0.37-0.099-0.537l0.003 0.010-0.993-2.65c-0.073-0.192-0.255-0.325-0.469-0.325s-0.396 0.134-0.467 0.322l-0.001 0.003-0.993 2.65c-0.060 0.156-0.095 0.337-0.095 0.527 0 0.828 0.672 1.5 1.5 1.5v0zM13.975 10.324l0.525-1.4 0.525 1.4c0.020 0.052 0.032 0.113 0.032 0.176 0 0.276-0.224 0.5-0.5 0.5v0h-0.114c-0.276 0-0.5-0.224-0.5-0.5 0-0.063 0.012-0.124 0.033-0.179l-0.001 0.003z"></path>
<path d="M1.353 4.978l2.041 0.629 0.629 2.043c0.065 0.206 0.254 0.353 0.478 0.353s0.413-0.147 0.477-0.35l0.001-0.004 0.629-2.041 2.043-0.631c0.206-0.065 0.353-0.254 0.353-0.478s-0.147-0.413-0.35-0.477l-0.004-0.001-2.043-0.629-0.629-2.041c-0.065-0.206-0.254-0.353-0.478-0.353s-0.413 0.147-0.477 0.35l-0.001 0.004-0.629 2.041-2.041 0.629c-0.206 0.065-0.353 0.254-0.353 0.478s0.147 0.413 0.35 0.477l0.004 0.001zM3.941 4.271c0.158-0.050 0.28-0.172 0.33-0.327l0.001-0.004 0.229-0.744 0.229 0.744c0.050 0.158 0.172 0.28 0.327 0.329l0.004 0.001 0.744 0.229-0.744 0.229c-0.158 0.050-0.28 0.172-0.33 0.327l-0.001 0.004-0.229 0.744-0.229-0.744c-0.050-0.158-0.172-0.28-0.327-0.33l-0.004-0.001-0.744-0.229z"></path>
<path d="M5.353 12.022c-0.206 0.065-0.353 0.254-0.353 0.478s0.147 0.413 0.35 0.477l0.004 0.001 2.041 0.629 0.629 2.043c0.065 0.206 0.254 0.353 0.478 0.353s0.413-0.147 0.477-0.35l0.001-0.004 0.629-2.040 2.043-0.631c0.206-0.065 0.353-0.254 0.353-0.478s-0.147-0.413-0.35-0.477l-0.004-0.001-2.040-0.629-0.632-2.043c-0.065-0.206-0.254-0.353-0.478-0.353s-0.413 0.147-0.477 0.35l-0.001 0.004-0.629 2.040zM8.271 11.941l0.229-0.744 0.229 0.744c0.050 0.158 0.172 0.28 0.327 0.329l0.004 0.001 0.743 0.229-0.744 0.229c-0.158 0.050-0.28 0.172-0.329 0.327l-0.001 0.004-0.229 0.744-0.229-0.744c-0.050-0.158-0.172-0.28-0.327-0.329l-0.004-0.001-0.744-0.229 0.744-0.229c0.158-0.050 0.28-0.172 0.33-0.327l0.001-0.004z"></path>
</symbol>
<symbol id="icon-handshake" viewBox="0 0 32 32">
<path d="M31.916 20.726l-5.773-9.999c-0.173-0.299-0.555-0.401-0.854-0.229l-4.194 2.422c-0.144 0.083-0.248 0.219-0.291 0.38-0.024 0.089-0.027 0.181-0.011 0.271h-0.835c-0.72 0-1.424 0.293-1.931 0.803l-1.092 1.097-0.762-0.917c-0.519-0.625-1.283-0.983-2.095-0.983h-2.871c0.016-0.089 0.013-0.181-0.011-0.271-0.043-0.16-0.148-0.297-0.291-0.38l-4.194-2.422c-0.299-0.173-0.681-0.070-0.854 0.229l-1.393 2.413c-0.173 0.299-0.070 0.681 0.229 0.854s0.681 0.070 0.854-0.229l1.081-1.872 3.112 1.797-5.148 8.916-3.112-1.797 1.16-2.009c0.173-0.299 0.070-0.681-0.229-0.854s-0.681-0.070-0.854 0.229l-1.472 2.55c-0.083 0.144-0.105 0.314-0.062 0.474s0.148 0.297 0.291 0.38l4.194 2.422c0.096 0.055 0.204 0.084 0.313 0.084 0.054 0 0.109-0.007 0.162-0.021 0.16-0.043 0.297-0.148 0.38-0.291l0.057-0.098 1.683 0.994c-0.002 0.423 0.144 0.848 0.444 1.189 0.293 0.333 0.683 0.531 1.091 0.589 0.005 0.427 0.16 0.834 0.445 1.159s0.669 0.531 1.092 0.59c0.005 0.412 0.151 0.824 0.444 1.158s0.683 0.532 1.092 0.589c0.005 0.412 0.151 0.825 0.444 1.159 0.353 0.402 0.848 0.607 1.345 0.607 0.408 0 0.818-0.139 1.152-0.421 0.009-0.007 0.018-0.014 0.026-0.022l0.995-0.881c0.067 0.103 0.146 0.2 0.236 0.29l0.796 0.796c0.353 0.353 0.817 0.53 1.282 0.53s0.928-0.177 1.282-0.53c0.321-0.321 0.496-0.733 0.525-1.154 0.421-0.029 0.833-0.204 1.154-0.525s0.496-0.733 0.525-1.154c0.421-0.029 0.833-0.204 1.154-0.525s0.496-0.733 0.525-1.154c0.421-0.029 0.833-0.204 1.154-0.525 0.524-0.524 0.659-1.291 0.406-1.941l1.686-1.142 0.244 0.423c0.083 0.144 0.219 0.248 0.38 0.291 0.053 0.014 0.108 0.021 0.162 0.021 0.109 0 0.217-0.028 0.313-0.084l4.194-2.422c0.299-0.173 0.401-0.555 0.229-0.854zM18.381 30.586c-0.219 0.219-0.576 0.219-0.796 0l-0.796-0.796c-0.106-0.106-0.165-0.247-0.165-0.398s0.058-0.291 0.165-0.398 0.247-0.165 0.398-0.165c0.15 0 0.291 0.058 0.398 0.165l0.796 0.796c0.219 0.219 0.219 0.576 0 0.796zM20.060 28.906c-0.219 0.219-0.576 0.219-0.796 0l-0.796-0.796c-0.106-0.106-0.165-0.247-0.165-0.398s0.058-0.291 0.165-0.398 0.247-0.165 0.398-0.165c0.15 0 0.291 0.058 0.398 0.165l0.796 0.796c0.219 0.219 0.219 0.576 0 0.796zM21.739 27.227c-0.219 0.219-0.576 0.219-0.796 0l-0.796-0.796c-0.106-0.106-0.165-0.247-0.165-0.398s0.058-0.291 0.165-0.398 0.247-0.165 0.398-0.165c0.15 0 0.291 0.058 0.398 0.165l0.796 0.796c0.219 0.219 0.219 0.576 0 0.796zM23.419 25.548c-0.219 0.219-0.576 0.219-0.795 0l-0.796-0.796c-0.219-0.219-0.219-0.576 0-0.796 0.11-0.11 0.254-0.165 0.398-0.165s0.288 0.055 0.398 0.164l0.796 0.796c0.219 0.219 0.219 0.576-0 0.796zM23.938 23.503l-0.43-0.43c-0.707-0.707-1.857-0.707-2.563 0-0.321 0.321-0.496 0.733-0.525 1.154-0.421 0.029-0.833 0.204-1.154 0.525s-0.496 0.733-0.525 1.154c-0.421 0.029-0.833 0.204-1.154 0.525s-0.496 0.733-0.525 1.154c-0.421 0.029-0.833 0.204-1.154 0.525-0.232 0.232-0.387 0.512-0.467 0.808l-1.572 1.392c-0.005 0.004-0.011 0.009-0.016 0.014-0.223 0.196-0.564 0.174-0.76-0.049s-0.174-0.564 0.049-0.76c0.021-0.019 1.811-1.754 1.811-1.754 0.245-0.243 0.247-0.639 0.004-0.884s-0.639-0.247-0.884-0.004c0 0-1.619 1.605-1.629 1.617-0.045 0.023-0.088 0.051-0.127 0.086-0.223 0.196-0.564 0.174-0.76-0.049s-0.174-0.564 0.049-0.76c0.062-0.055 0.11-0.119 0.145-0.189l1.71-1.714c0.244-0.244 0.243-0.64-0.001-0.884s-0.64-0.243-0.884 0.001l-1.816 1.82c-0.030 0.030-0.055 0.061-0.078 0.095-0.089 0.048-0.189 0.071-0.292 0.065-0.143-0.009-0.275-0.074-0.37-0.182s-0.142-0.247-0.133-0.39c0.009-0.143 0.074-0.275 0.182-0.37 0.005-0.004 0.009-0.009 0.013-0.013s0.011-0.010 0.017-0.015l1.983-1.988c0.244-0.244 0.243-0.64-0.001-0.884s-0.64-0.243-0.884 0.001l-1.963 1.967c-0.223 0.188-0.557 0.164-0.751-0.056-0.196-0.223-0.174-0.564 0.049-0.76 0.018-0.016 1.745-1.68 1.745-1.68 0.25-0.238 0.26-0.634 0.021-0.884s-0.634-0.26-0.884-0.021c0 0-1.822 1.754-1.86 1.797l-1.512-0.893 4.487-7.772h3.548c0.44 0 0.853 0.194 1.134 0.532l2.53 3.043c0.142 0.171 0.196 0.394 0.147 0.612s-0.194 0.396-0.396 0.489c-0.266 0.122-0.574 0.072-0.787-0.13l-2.712-2.57c-0.251-0.237-0.646-0.227-0.884 0.024s-0.227 0.646 0.024 0.884l0.175 0.166c-0.492 0.98-1.546 1.59-2.655 1.506l-0.013-0.001c-0.344-0.026-0.644 0.232-0.671 0.576s0.232 0.644 0.576 0.671l0.013 0.001c0.099 0.008 0.198 0.011 0.296 0.011 1.377 0 2.664-0.726 3.388-1.878l1.603 1.519c0.374 0.354 0.856 0.539 1.346 0.539 0.278 0 0.558-0.060 0.823-0.182 0.558-0.257 0.956-0.748 1.092-1.348s-0.012-1.214-0.404-1.687l-0.965-1.16 1.175-1.181c0.275-0.276 0.656-0.434 1.045-0.434h1.512l4.298 7.444-1.831 1.24zM27.409 22.606l-5.148-8.916 3.112-1.797 5.148 8.916-3.112 1.797z"></path>
<path d="M3.842 15.467c-0.299-0.173-0.681-0.070-0.854 0.229l-0.041 0.070c-0.173 0.299-0.070 0.681 0.229 0.854 0.099 0.057 0.206 0.084 0.312 0.084 0.216 0 0.426-0.112 0.542-0.313l0.041-0.070c0.173-0.299 0.070-0.681-0.229-0.854z"></path>
<path d="M28.442 19.558c-0.116-0.116-0.277-0.183-0.442-0.183s-0.326 0.067-0.442 0.183c-0.116 0.116-0.183 0.277-0.183 0.442s0.067 0.326 0.183 0.442c0.116 0.116 0.277 0.183 0.442 0.183s0.326-0.067 0.442-0.183c0.116-0.116 0.183-0.277 0.183-0.442s-0.067-0.326-0.183-0.442z"></path>
<path d="M4.442 19.558c-0.116-0.116-0.277-0.183-0.442-0.183s-0.326 0.067-0.442 0.183-0.183 0.277-0.183 0.442 0.067 0.326 0.183 0.442 0.277 0.183 0.442 0.183c0.164 0 0.326-0.067 0.442-0.183s0.183-0.277 0.183-0.442-0.067-0.326-0.183-0.442z"></path>
<path d="M14.59 4.871c-0.116-0.116-0.277-0.183-0.443-0.183s-0.326 0.066-0.442 0.183-0.182 0.277-0.182 0.442c0 0.164 0.066 0.326 0.182 0.442s0.277 0.183 0.442 0.183c0.165 0 0.326-0.067 0.443-0.183s0.183-0.277 0.183-0.442c0-0.165-0.067-0.326-0.183-0.442z"></path>
<path d="M18.455 4.871c-0.116-0.116-0.277-0.183-0.442-0.183s-0.326 0.066-0.442 0.183c-0.116 0.117-0.183 0.277-0.183 0.442s0.066 0.326 0.183 0.442c0.117 0.116 0.277 0.183 0.442 0.183s0.326-0.067 0.442-0.183 0.183-0.277 0.183-0.442c0-0.165-0.067-0.326-0.183-0.442z"></path>
<path d="M21.96 4.22c-0.115-0.326-0.471-0.497-0.797-0.382s-0.497 0.471-0.382 0.797c0.19 0.539 0.286 1.105 0.286 1.682 0 2.794-2.273 5.067-5.067 5.067s-5.067-2.273-5.067-5.067c0-2.794 2.273-5.067 5.067-5.067 0.547 0 1.085 0.087 1.598 0.257 0.328 0.109 0.681-0.069 0.79-0.396s-0.069-0.681-0.396-0.79c-0.641-0.213-1.311-0.321-1.992-0.321-3.483 0-6.317 2.834-6.317 6.317s2.834 6.317 6.317 6.317 6.317-2.834 6.317-6.317c0-0.719-0.12-1.425-0.357-2.097z"></path>
<path d="M20.561 1.947c-0.017-0.018-0.034-0.035-0.051-0.052-0.241-0.247-0.637-0.251-0.884-0.010s-0.251 0.637-0.009 0.884c0.014 0.014 0.028 0.028 0.041 0.043 0.123 0.128 0.287 0.193 0.451 0.193 0.155 0 0.311-0.058 0.432-0.174 0.249-0.239 0.258-0.634 0.019-0.884z"></path>
<path d="M17.727 7.572c-0.244-0.244-0.64-0.244-0.884 0-0.421 0.421-1.105 0.421-1.526 0-0.244-0.244-0.64-0.244-0.884 0s-0.244 0.64 0 0.884c0.454 0.454 1.050 0.681 1.647 0.681s1.193-0.227 1.647-0.681c0.244-0.244 0.244-0.64 0-0.884z"></path>
<path d="M27.573 2.5h-0.429c-0.345 0-0.625 0.28-0.625 0.625s0.28 0.625 0.625 0.625h0.429c0.345 0 0.625-0.28 0.625-0.625s-0.28-0.625-0.625-0.625z"></path>
<path d="M30.605 2.5h-0.429c-0.345 0-0.625 0.28-0.625 0.625s0.28 0.625 0.625 0.625h0.429c0.345 0 0.625-0.28 0.625-0.625s-0.28-0.625-0.625-0.625z"></path>
<path d="M28.875 3.802c-0.345 0-0.625 0.28-0.625 0.625v0.429c0 0.345 0.28 0.625 0.625 0.625s0.625-0.28 0.625-0.625v-0.429c0-0.345-0.28-0.625-0.625-0.625z"></path>
<path d="M28.875 0.77c-0.345 0-0.625 0.28-0.625 0.625v0.429c0 0.345 0.28 0.625 0.625 0.625s0.625-0.28 0.625-0.625v-0.429c0-0.345-0.28-0.625-0.625-0.625z"></path>
<path d="M1.054 7.388h-0.429c-0.345 0-0.625 0.28-0.625 0.625s0.28 0.625 0.625 0.625h0.429c0.345 0 0.625-0.28 0.625-0.625s-0.28-0.625-0.625-0.625z"></path>
<path d="M4.086 7.388h-0.429c-0.345 0-0.625 0.28-0.625 0.625s0.28 0.625 0.625 0.625h0.429c0.345 0 0.625-0.28 0.625-0.625s-0.28-0.625-0.625-0.625z"></path>
<path d="M2.356 8.69c-0.345 0-0.625 0.28-0.625 0.625v0.429c0 0.345 0.28 0.625 0.625 0.625s0.625-0.28 0.625-0.625v-0.429c0-0.345-0.28-0.625-0.625-0.625z"></path>
<path d="M2.356 5.658c-0.345 0-0.625 0.28-0.625 0.625v0.429c0 0.345 0.28 0.625 0.625 0.625s0.625-0.28 0.625-0.625v-0.429c0-0.345-0.28-0.625-0.625-0.625z"></path>
</symbol>
<symbol id="icon-location" viewBox="0 0 32 32">
<path d="M19.694 9.255c-0-2.040-1.654-3.694-3.694-3.694s-3.694 1.654-3.694 3.694 1.654 3.694 3.694 3.694v0c2.039-0.003 3.692-1.655 3.694-3.695v-0zM13.181 9.255c0-1.557 1.262-2.819 2.819-2.819s2.819 1.262 2.819 2.819-1.262 2.819-2.819 2.819v0c-1.556-0.002-2.818-1.263-2.819-2.82v-0z"></path>
<path d="M30.832 30.267l-3.567-9.35c-0.065-0.166-0.223-0.281-0.409-0.282h-6.75c0.041-0.067 0.082-0.133 0.123-0.2 2.597-4.3 3.904-8.062 3.886-11.178 0-0 0-0.001 0-0.001 0-4.482-3.634-8.116-8.116-8.116s-8.115 3.633-8.116 8.115v0c-0.019 3.12 1.288 6.882 3.886 11.181 0.041 0.068 0.082 0.134 0.123 0.2h-6.75c-0.186 0-0.344 0.116-0.408 0.279l-0.001 0.003-3.566 9.35c-0.018 0.046-0.029 0.1-0.029 0.157 0 0.241 0.196 0.437 0.437 0.437 0 0 0.001 0 0.001 0h28.846c0 0 0 0 0.001 0 0.241 0 0.437-0.196 0.437-0.437 0-0.056-0.011-0.11-0.030-0.159l0.001 0.003zM8.759 9.255c0.001-3.999 3.242-7.24 7.241-7.24s7.241 3.242 7.241 7.241c0 0 0 0.001 0 0.001v-0c0.038 6.215-5.773 13.879-7.241 15.717-1.469-1.837-7.279-9.5-7.241-15.72zM15.667 25.95c0.081 0.095 0.2 0.154 0.333 0.154s0.253-0.060 0.333-0.153l0-0.001c1.077-1.302 2.138-2.75 3.115-4.258l0.11-0.181h6.997l0.56 1.469-13.673 4.863-4.873-6.332h3.873c1.087 1.69 2.149 3.138 3.289 4.519l-0.063-0.079zM13.427 28.775h0.002l8.157-2.9 3.164 4.111h-14.725zM5.444 21.509h2.020l5.111 6.64-5.161 1.835h-5.202zM25.855 29.986l-3.402-4.421 4.975-1.769 2.361 6.19z"></path>
</symbol>
</defs>
</svg>
